<mxfile host="app.diagrams.net" modified="2021-04-21T14:33:13.034Z" agent="5.0 (Windows NT 10.0; Win64; x64) AppleWebKit/537.36 (KHTML, like Gecko) Chrome/86.0.4240.75 Safari/537.36" etag="GGs4ShH0Fkbunc7XuB6y" version="14.4.2" type="github">
  <diagram id="C5RBs43oDa-KdzZeNtuy" name="Page-1">
    <mxGraphModel dx="1038" dy="548" grid="1" gridSize="10" guides="1" tooltips="1" connect="1" arrows="1" fold="1" page="1" pageScale="1" pageWidth="827" pageHeight="1169" math="0" shadow="0">
      <root>
        <mxCell id="WIyWlLk6GJQsqaUBKTNV-0" />
        <mxCell id="WIyWlLk6GJQsqaUBKTNV-1" parent="WIyWlLk6GJQsqaUBKTNV-0" />
        <mxCell id="WIyWlLk6GJQsqaUBKTNV-2" value="" style="rounded=0;html=1;jettySize=auto;orthogonalLoop=1;fontSize=11;endArrow=block;endFill=0;endSize=8;strokeWidth=1;shadow=0;labelBackgroundColor=none;edgeStyle=orthogonalEdgeStyle;" parent="WIyWlLk6GJQsqaUBKTNV-1" source="WIyWlLk6GJQsqaUBKTNV-3" target="WIyWlLk6GJQsqaUBKTNV-6" edge="1">
          <mxGeometry relative="1" as="geometry" />
        </mxCell>
        <mxCell id="WIyWlLk6GJQsqaUBKTNV-3" value="MATERIAL TO BE &quot;STOPPED&quot; SCANNED" style="rounded=1;whiteSpace=wrap;html=1;fontSize=12;glass=0;strokeWidth=1;shadow=0;" parent="WIyWlLk6GJQsqaUBKTNV-1" vertex="1">
          <mxGeometry x="148" y="190" width="150" height="60" as="geometry" />
        </mxCell>
        <mxCell id="WIyWlLk6GJQsqaUBKTNV-4" value="Yes" style="rounded=0;html=1;jettySize=auto;orthogonalLoop=1;fontSize=11;endArrow=block;endFill=0;endSize=8;strokeWidth=1;shadow=0;labelBackgroundColor=none;edgeStyle=orthogonalEdgeStyle;" parent="WIyWlLk6GJQsqaUBKTNV-1" source="WIyWlLk6GJQsqaUBKTNV-6" edge="1">
          <mxGeometry y="20" relative="1" as="geometry">
            <mxPoint as="offset" />
            <mxPoint x="223" y="420" as="targetPoint" />
          </mxGeometry>
        </mxCell>
        <mxCell id="WIyWlLk6GJQsqaUBKTNV-5" value="No" style="edgeStyle=orthogonalEdgeStyle;rounded=0;html=1;jettySize=auto;orthogonalLoop=1;fontSize=11;endArrow=block;endFill=0;endSize=8;strokeWidth=1;shadow=0;labelBackgroundColor=none;" parent="WIyWlLk6GJQsqaUBKTNV-1" source="WIyWlLk6GJQsqaUBKTNV-6" target="WIyWlLk6GJQsqaUBKTNV-7" edge="1">
          <mxGeometry y="10" relative="1" as="geometry">
            <mxPoint as="offset" />
          </mxGeometry>
        </mxCell>
        <mxCell id="WIyWlLk6GJQsqaUBKTNV-6" value="HU2 PRESENT?" style="rhombus;whiteSpace=wrap;html=1;shadow=0;fontFamily=Helvetica;fontSize=12;align=center;strokeWidth=1;spacing=6;spacingTop=-4;" parent="WIyWlLk6GJQsqaUBKTNV-1" vertex="1">
          <mxGeometry x="173" y="300" width="100" height="80" as="geometry" />
        </mxCell>
        <mxCell id="WIyWlLk6GJQsqaUBKTNV-7" value="SAP TRANSACTION COMPELTED FOR SINGLE HU ON REEL" style="rounded=1;whiteSpace=wrap;html=1;fontSize=12;glass=0;strokeWidth=1;shadow=0;" parent="WIyWlLk6GJQsqaUBKTNV-1" vertex="1">
          <mxGeometry x="323" y="310" width="180" height="60" as="geometry" />
        </mxCell>
        <mxCell id="WIyWlLk6GJQsqaUBKTNV-12" value="INDIVIDUAL SAP TRANASCTIONS COMPLETED FOR BOTH HU&amp;nbsp;" style="rounded=1;whiteSpace=wrap;html=1;fontSize=12;glass=0;strokeWidth=1;shadow=0;" parent="WIyWlLk6GJQsqaUBKTNV-1" vertex="1">
          <mxGeometry x="133" y="420" width="180" height="60" as="geometry" />
        </mxCell>
        <mxCell id="18ilJ8a1d8NdQvmp0lxt-0" value="PRINT LABLE" style="rounded=1;whiteSpace=wrap;html=1;fontSize=12;glass=0;strokeWidth=1;shadow=0;" vertex="1" parent="WIyWlLk6GJQsqaUBKTNV-1">
          <mxGeometry x="553" y="310" width="180" height="60" as="geometry" />
        </mxCell>
        <mxCell id="18ilJ8a1d8NdQvmp0lxt-2" value="" style="endArrow=classic;html=1;entryX=0;entryY=0.5;entryDx=0;entryDy=0;exitX=1;exitY=0.5;exitDx=0;exitDy=0;" edge="1" parent="WIyWlLk6GJQsqaUBKTNV-1" source="WIyWlLk6GJQsqaUBKTNV-7" target="18ilJ8a1d8NdQvmp0lxt-0">
          <mxGeometry width="50" height="50" relative="1" as="geometry">
            <mxPoint x="363" y="370" as="sourcePoint" />
            <mxPoint x="413" y="320" as="targetPoint" />
          </mxGeometry>
        </mxCell>
        <mxCell id="18ilJ8a1d8NdQvmp0lxt-3" value="PRINT LABLE FOR FULL REEL HU (SPLICE WILL BE RECALLED BY ASM)" style="rounded=1;whiteSpace=wrap;html=1;fontSize=12;glass=0;strokeWidth=1;shadow=0;" vertex="1" parent="WIyWlLk6GJQsqaUBKTNV-1">
          <mxGeometry x="553" y="420" width="180" height="60" as="geometry" />
        </mxCell>
        <mxCell id="18ilJ8a1d8NdQvmp0lxt-4" value="" style="endArrow=classic;html=1;exitX=1;exitY=0.5;exitDx=0;exitDy=0;entryX=0;entryY=0.5;entryDx=0;entryDy=0;" edge="1" parent="WIyWlLk6GJQsqaUBKTNV-1" source="WIyWlLk6GJQsqaUBKTNV-12" target="18ilJ8a1d8NdQvmp0lxt-3">
          <mxGeometry width="50" height="50" relative="1" as="geometry">
            <mxPoint x="363" y="370" as="sourcePoint" />
            <mxPoint x="413" y="320" as="targetPoint" />
          </mxGeometry>
        </mxCell>
        <mxCell id="18ilJ8a1d8NdQvmp0lxt-5" value="SCAN IN" style="text;html=1;strokeColor=none;fillColor=none;align=center;verticalAlign=middle;whiteSpace=wrap;rounded=0;" vertex="1" parent="WIyWlLk6GJQsqaUBKTNV-1">
          <mxGeometry x="63" y="320" width="40" height="20" as="geometry" />
        </mxCell>
        <mxCell id="18ilJ8a1d8NdQvmp0lxt-6" value="SCAN OUT" style="text;html=1;strokeColor=none;fillColor=none;align=center;verticalAlign=middle;whiteSpace=wrap;rounded=0;" vertex="1" parent="WIyWlLk6GJQsqaUBKTNV-1">
          <mxGeometry x="63" y="690" width="40" height="20" as="geometry" />
        </mxCell>
        <mxCell id="18ilJ8a1d8NdQvmp0lxt-7" value="" style="rounded=0;html=1;jettySize=auto;orthogonalLoop=1;fontSize=11;endArrow=block;endFill=0;endSize=8;strokeWidth=1;shadow=0;labelBackgroundColor=none;edgeStyle=orthogonalEdgeStyle;" edge="1" source="18ilJ8a1d8NdQvmp0lxt-8" target="18ilJ8a1d8NdQvmp0lxt-11" parent="WIyWlLk6GJQsqaUBKTNV-1">
          <mxGeometry relative="1" as="geometry" />
        </mxCell>
        <mxCell id="18ilJ8a1d8NdQvmp0lxt-8" value="MATERIAL TO BE &quot;STARTED&quot; SCANNED" style="rounded=1;whiteSpace=wrap;html=1;fontSize=12;glass=0;strokeWidth=1;shadow=0;" vertex="1" parent="WIyWlLk6GJQsqaUBKTNV-1">
          <mxGeometry x="148" y="550" width="150" height="60" as="geometry" />
        </mxCell>
        <mxCell id="18ilJ8a1d8NdQvmp0lxt-9" value="Yes" style="rounded=0;html=1;jettySize=auto;orthogonalLoop=1;fontSize=11;endArrow=block;endFill=0;endSize=8;strokeWidth=1;shadow=0;labelBackgroundColor=none;edgeStyle=orthogonalEdgeStyle;" edge="1" source="18ilJ8a1d8NdQvmp0lxt-11" parent="WIyWlLk6GJQsqaUBKTNV-1">
          <mxGeometry y="20" relative="1" as="geometry">
            <mxPoint as="offset" />
            <mxPoint x="223" y="780" as="targetPoint" />
          </mxGeometry>
        </mxCell>
        <mxCell id="18ilJ8a1d8NdQvmp0lxt-10" value="No" style="edgeStyle=orthogonalEdgeStyle;rounded=0;html=1;jettySize=auto;orthogonalLoop=1;fontSize=11;endArrow=block;endFill=0;endSize=8;strokeWidth=1;shadow=0;labelBackgroundColor=none;" edge="1" source="18ilJ8a1d8NdQvmp0lxt-11" target="18ilJ8a1d8NdQvmp0lxt-12" parent="WIyWlLk6GJQsqaUBKTNV-1">
          <mxGeometry y="10" relative="1" as="geometry">
            <mxPoint as="offset" />
          </mxGeometry>
        </mxCell>
        <mxCell id="18ilJ8a1d8NdQvmp0lxt-11" value="HU2 PRESENT?" style="rhombus;whiteSpace=wrap;html=1;shadow=0;fontFamily=Helvetica;fontSize=12;align=center;strokeWidth=1;spacing=6;spacingTop=-4;" vertex="1" parent="WIyWlLk6GJQsqaUBKTNV-1">
          <mxGeometry x="173" y="660" width="100" height="80" as="geometry" />
        </mxCell>
        <mxCell id="18ilJ8a1d8NdQvmp0lxt-12" value="SAP TRANSACTION COMPELTED FOR SINGLE HU ON REEL" style="rounded=1;whiteSpace=wrap;html=1;fontSize=12;glass=0;strokeWidth=1;shadow=0;" vertex="1" parent="WIyWlLk6GJQsqaUBKTNV-1">
          <mxGeometry x="323" y="670" width="180" height="60" as="geometry" />
        </mxCell>
        <mxCell id="18ilJ8a1d8NdQvmp0lxt-13" value="INDIVIDUAL SAP TRANASCTIONS COMPLETED FOR BOTH HU&amp;nbsp;" style="rounded=1;whiteSpace=wrap;html=1;fontSize=12;glass=0;strokeWidth=1;shadow=0;" vertex="1" parent="WIyWlLk6GJQsqaUBKTNV-1">
          <mxGeometry x="133" y="780" width="180" height="60" as="geometry" />
        </mxCell>
        <mxCell id="18ilJ8a1d8NdQvmp0lxt-14" value="ISSUE TO FLOOR" style="rounded=1;whiteSpace=wrap;html=1;fontSize=12;glass=0;strokeWidth=1;shadow=0;" vertex="1" parent="WIyWlLk6GJQsqaUBKTNV-1">
          <mxGeometry x="553" y="670" width="180" height="60" as="geometry" />
        </mxCell>
        <mxCell id="18ilJ8a1d8NdQvmp0lxt-15" value="" style="endArrow=classic;html=1;entryX=0;entryY=0.5;entryDx=0;entryDy=0;exitX=1;exitY=0.5;exitDx=0;exitDy=0;" edge="1" source="18ilJ8a1d8NdQvmp0lxt-12" target="18ilJ8a1d8NdQvmp0lxt-14" parent="WIyWlLk6GJQsqaUBKTNV-1">
          <mxGeometry width="50" height="50" relative="1" as="geometry">
            <mxPoint x="363" y="730" as="sourcePoint" />
            <mxPoint x="413" y="680" as="targetPoint" />
          </mxGeometry>
        </mxCell>
        <mxCell id="18ilJ8a1d8NdQvmp0lxt-16" value="ISSUE TO FLOOR" style="rounded=1;whiteSpace=wrap;html=1;fontSize=12;glass=0;strokeWidth=1;shadow=0;" vertex="1" parent="WIyWlLk6GJQsqaUBKTNV-1">
          <mxGeometry x="553" y="780" width="180" height="60" as="geometry" />
        </mxCell>
        <mxCell id="18ilJ8a1d8NdQvmp0lxt-17" value="" style="endArrow=classic;html=1;exitX=1;exitY=0.5;exitDx=0;exitDy=0;entryX=0;entryY=0.5;entryDx=0;entryDy=0;" edge="1" source="18ilJ8a1d8NdQvmp0lxt-13" target="18ilJ8a1d8NdQvmp0lxt-16" parent="WIyWlLk6GJQsqaUBKTNV-1">
          <mxGeometry width="50" height="50" relative="1" as="geometry">
            <mxPoint x="363" y="730" as="sourcePoint" />
            <mxPoint x="413" y="680" as="targetPoint" />
          </mxGeometry>
        </mxCell>
        <mxCell id="18ilJ8a1d8NdQvmp0lxt-18" value="" style="endArrow=none;html=1;" edge="1" parent="WIyWlLk6GJQsqaUBKTNV-1">
          <mxGeometry width="50" height="50" relative="1" as="geometry">
            <mxPoint x="763" y="890" as="sourcePoint" />
            <mxPoint x="763" y="700" as="targetPoint" />
          </mxGeometry>
        </mxCell>
        <mxCell id="18ilJ8a1d8NdQvmp0lxt-19" value="" style="endArrow=classic;html=1;exitX=1;exitY=0.5;exitDx=0;exitDy=0;" edge="1" parent="WIyWlLk6GJQsqaUBKTNV-1" source="18ilJ8a1d8NdQvmp0lxt-14">
          <mxGeometry width="50" height="50" relative="1" as="geometry">
            <mxPoint x="363" y="860" as="sourcePoint" />
            <mxPoint x="763" y="700" as="targetPoint" />
          </mxGeometry>
        </mxCell>
        <mxCell id="18ilJ8a1d8NdQvmp0lxt-20" value="" style="endArrow=classic;html=1;exitX=1;exitY=0.5;exitDx=0;exitDy=0;" edge="1" parent="WIyWlLk6GJQsqaUBKTNV-1" source="18ilJ8a1d8NdQvmp0lxt-16">
          <mxGeometry width="50" height="50" relative="1" as="geometry">
            <mxPoint x="743" y="710" as="sourcePoint" />
            <mxPoint x="763" y="810" as="targetPoint" />
          </mxGeometry>
        </mxCell>
        <mxCell id="18ilJ8a1d8NdQvmp0lxt-21" value="" style="endArrow=classic;html=1;" edge="1" parent="WIyWlLk6GJQsqaUBKTNV-1">
          <mxGeometry width="50" height="50" relative="1" as="geometry">
            <mxPoint x="763" y="890" as="sourcePoint" />
            <mxPoint x="443" y="890" as="targetPoint" />
          </mxGeometry>
        </mxCell>
        <mxCell id="18ilJ8a1d8NdQvmp0lxt-22" value="PUT BACK ONTO ASM, BOTH HU ARE RECALLED USING THE PRE-EXISTING &quot;UNIQUE ID&quot;" style="rounded=0;whiteSpace=wrap;html=1;" vertex="1" parent="WIyWlLk6GJQsqaUBKTNV-1">
          <mxGeometry x="283" y="860" width="160" height="90" as="geometry" />
        </mxCell>
        <mxCell id="18ilJ8a1d8NdQvmp0lxt-25" style="edgeStyle=orthogonalEdgeStyle;rounded=0;orthogonalLoop=1;jettySize=auto;html=1;exitX=0;exitY=0.5;exitDx=0;exitDy=0;" edge="1" parent="WIyWlLk6GJQsqaUBKTNV-1" source="18ilJ8a1d8NdQvmp0lxt-23">
          <mxGeometry relative="1" as="geometry">
            <mxPoint x="140" y="105" as="targetPoint" />
          </mxGeometry>
        </mxCell>
        <mxCell id="18ilJ8a1d8NdQvmp0lxt-23" value="MATERIAL REMOVED FROM ASM FEEDER" style="rounded=0;whiteSpace=wrap;html=1;" vertex="1" parent="WIyWlLk6GJQsqaUBKTNV-1">
          <mxGeometry x="148" y="60" width="152" height="90" as="geometry" />
        </mxCell>
        <mxCell id="18ilJ8a1d8NdQvmp0lxt-24" value="" style="endArrow=classic;html=1;exitX=0.5;exitY=1;exitDx=0;exitDy=0;" edge="1" parent="WIyWlLk6GJQsqaUBKTNV-1" source="18ilJ8a1d8NdQvmp0lxt-23" target="WIyWlLk6GJQsqaUBKTNV-3">
          <mxGeometry width="50" height="50" relative="1" as="geometry">
            <mxPoint x="360" y="260" as="sourcePoint" />
            <mxPoint x="410" y="210" as="targetPoint" />
          </mxGeometry>
        </mxCell>
      </root>
    </mxGraphModel>
  </diagram>
</mxfile>
